<mxfile host="Electron" agent="Mozilla/5.0 (Windows NT 10.0; Win64; x64) AppleWebKit/537.36 (KHTML, like Gecko) draw.io/25.0.2 Chrome/128.0.6613.186 Electron/32.2.5 Safari/537.36" version="25.0.2">
  <diagram name="Page-1" id="J_IZ6nBDfecxb8bYEL_w">
    <mxGraphModel dx="2396" dy="1171" grid="1" gridSize="10" guides="1" tooltips="1" connect="1" arrows="1" fold="1" page="1" pageScale="1" pageWidth="827" pageHeight="1169" math="0" shadow="0">
      <root>
        <mxCell id="0" />
        <mxCell id="1" parent="0" />
        <mxCell id="kbSjcRvdbvo7TDoH9uiN-1" value="Patient" style="rounded=0;whiteSpace=wrap;html=1;" parent="1" vertex="1">
          <mxGeometry x="80" y="120" width="120" height="30" as="geometry" />
        </mxCell>
        <mxCell id="kbSjcRvdbvo7TDoH9uiN-2" value="" style="rounded=0;whiteSpace=wrap;html=1;" parent="1" vertex="1">
          <mxGeometry x="80" y="150" width="880" height="30" as="geometry" />
        </mxCell>
        <mxCell id="kbSjcRvdbvo7TDoH9uiN-3" value="&lt;u&gt;Patient_Id&lt;/u&gt;" style="rounded=0;whiteSpace=wrap;html=1;" parent="1" vertex="1">
          <mxGeometry x="80" y="150" width="80" height="30" as="geometry" />
        </mxCell>
        <mxCell id="kbSjcRvdbvo7TDoH9uiN-12" value="Bed" style="rounded=0;whiteSpace=wrap;html=1;" parent="1" vertex="1">
          <mxGeometry x="80" y="230" width="120" height="30" as="geometry" />
        </mxCell>
        <mxCell id="kbSjcRvdbvo7TDoH9uiN-15" value="Mname" style="rounded=0;whiteSpace=wrap;html=1;" parent="1" vertex="1">
          <mxGeometry x="240" y="150" width="80" height="30" as="geometry" />
        </mxCell>
        <mxCell id="kbSjcRvdbvo7TDoH9uiN-16" value="Fname" style="rounded=0;whiteSpace=wrap;html=1;" parent="1" vertex="1">
          <mxGeometry x="160" y="150" width="80" height="30" as="geometry" />
        </mxCell>
        <mxCell id="Brqu6o4PabaYGnHVCudD-1" style="edgeStyle=orthogonalEdgeStyle;rounded=0;orthogonalLoop=1;jettySize=auto;html=1;exitX=0.5;exitY=1;exitDx=0;exitDy=0;entryX=0.75;entryY=1;entryDx=0;entryDy=0;" parent="1" source="kbSjcRvdbvo7TDoH9uiN-17" target="kbSjcRvdbvo7TDoH9uiN-35" edge="1">
          <mxGeometry relative="1" as="geometry" />
        </mxCell>
        <mxCell id="kbSjcRvdbvo7TDoH9uiN-17" value="Bed_Id" style="rounded=0;whiteSpace=wrap;html=1;" parent="1" vertex="1">
          <mxGeometry x="880" y="150" width="80" height="30" as="geometry" />
        </mxCell>
        <mxCell id="tBT8CLfCMpw9sTmY56l--14" style="edgeStyle=orthogonalEdgeStyle;rounded=0;orthogonalLoop=1;jettySize=auto;html=1;exitX=0.5;exitY=1;exitDx=0;exitDy=0;entryX=0.75;entryY=1;entryDx=0;entryDy=0;" parent="1" source="kbSjcRvdbvo7TDoH9uiN-18" target="kbSjcRvdbvo7TDoH9uiN-41" edge="1">
          <mxGeometry relative="1" as="geometry">
            <Array as="points">
              <mxPoint x="840" y="410" />
              <mxPoint x="140" y="410" />
            </Array>
          </mxGeometry>
        </mxCell>
        <mxCell id="kbSjcRvdbvo7TDoH9uiN-18" value="Room_Id" style="rounded=0;whiteSpace=wrap;html=1;" parent="1" vertex="1">
          <mxGeometry x="800" y="150" width="80" height="30" as="geometry" />
        </mxCell>
        <mxCell id="kbSjcRvdbvo7TDoH9uiN-19" value="Status" style="rounded=0;whiteSpace=wrap;html=1;" parent="1" vertex="1">
          <mxGeometry x="720" y="150" width="80" height="30" as="geometry" />
        </mxCell>
        <mxCell id="kbSjcRvdbvo7TDoH9uiN-20" value="EntryDate" style="rounded=0;whiteSpace=wrap;html=1;" parent="1" vertex="1">
          <mxGeometry x="640" y="150" width="80" height="30" as="geometry" />
        </mxCell>
        <mxCell id="kbSjcRvdbvo7TDoH9uiN-21" value="PhoneNumber" style="rounded=0;whiteSpace=wrap;html=1;" parent="1" vertex="1">
          <mxGeometry x="560" y="150" width="80" height="30" as="geometry" />
        </mxCell>
        <mxCell id="kbSjcRvdbvo7TDoH9uiN-22" value="DOB" style="rounded=0;whiteSpace=wrap;html=1;" parent="1" vertex="1">
          <mxGeometry x="480" y="150" width="80" height="30" as="geometry" />
        </mxCell>
        <mxCell id="kbSjcRvdbvo7TDoH9uiN-23" value="Gender" style="rounded=0;whiteSpace=wrap;html=1;" parent="1" vertex="1">
          <mxGeometry x="400" y="150" width="80" height="30" as="geometry" />
        </mxCell>
        <mxCell id="kbSjcRvdbvo7TDoH9uiN-24" value="Lname" style="rounded=0;whiteSpace=wrap;html=1;" parent="1" vertex="1">
          <mxGeometry x="320" y="150" width="80" height="30" as="geometry" />
        </mxCell>
        <mxCell id="kbSjcRvdbvo7TDoH9uiN-26" value="Bed" style="rounded=0;whiteSpace=wrap;html=1;" parent="1" vertex="1">
          <mxGeometry x="80" y="230" width="120" height="30" as="geometry" />
        </mxCell>
        <mxCell id="kbSjcRvdbvo7TDoH9uiN-27" value="Room" style="rounded=0;whiteSpace=wrap;html=1;" parent="1" vertex="1">
          <mxGeometry x="80" y="340" width="120" height="30" as="geometry" />
        </mxCell>
        <mxCell id="kbSjcRvdbvo7TDoH9uiN-29" value="Department" style="rounded=0;whiteSpace=wrap;html=1;" parent="1" vertex="1">
          <mxGeometry x="80" y="440" width="120" height="30" as="geometry" />
        </mxCell>
        <mxCell id="kbSjcRvdbvo7TDoH9uiN-30" value="Machine" style="rounded=0;whiteSpace=wrap;html=1;" parent="1" vertex="1">
          <mxGeometry x="80" y="560" width="120" height="30" as="geometry" />
        </mxCell>
        <mxCell id="kbSjcRvdbvo7TDoH9uiN-34" value="" style="rounded=0;whiteSpace=wrap;html=1;" parent="1" vertex="1">
          <mxGeometry x="82" y="260" width="318" height="30" as="geometry" />
        </mxCell>
        <mxCell id="kbSjcRvdbvo7TDoH9uiN-35" value="&lt;u&gt;Bed_Id&lt;/u&gt;" style="rounded=0;whiteSpace=wrap;html=1;" parent="1" vertex="1">
          <mxGeometry x="80" y="260" width="80" height="30" as="geometry" />
        </mxCell>
        <mxCell id="kbSjcRvdbvo7TDoH9uiN-36" value="Bed_Number" style="rounded=0;whiteSpace=wrap;html=1;" parent="1" vertex="1">
          <mxGeometry x="160" y="260" width="80" height="30" as="geometry" />
        </mxCell>
        <mxCell id="kbSjcRvdbvo7TDoH9uiN-37" value="Is_Available" style="rounded=0;whiteSpace=wrap;html=1;" parent="1" vertex="1">
          <mxGeometry x="240" y="260" width="80" height="30" as="geometry" />
        </mxCell>
        <mxCell id="tBT8CLfCMpw9sTmY56l--12" style="edgeStyle=orthogonalEdgeStyle;rounded=0;orthogonalLoop=1;jettySize=auto;html=1;exitX=0.5;exitY=1;exitDx=0;exitDy=0;entryX=0.5;entryY=1;entryDx=0;entryDy=0;" parent="1" source="kbSjcRvdbvo7TDoH9uiN-39" target="kbSjcRvdbvo7TDoH9uiN-41" edge="1">
          <mxGeometry relative="1" as="geometry">
            <Array as="points">
              <mxPoint x="440" y="320" />
              <mxPoint x="660" y="320" />
              <mxPoint x="660" y="420" />
              <mxPoint x="120" y="420" />
            </Array>
          </mxGeometry>
        </mxCell>
        <mxCell id="Brqu6o4PabaYGnHVCudD-3" style="edgeStyle=orthogonalEdgeStyle;rounded=0;orthogonalLoop=1;jettySize=auto;html=1;exitX=0.5;exitY=1;exitDx=0;exitDy=0;entryX=0.5;entryY=1;entryDx=0;entryDy=0;" parent="1" source="kbSjcRvdbvo7TDoH9uiN-39" target="kbSjcRvdbvo7TDoH9uiN-41" edge="1">
          <mxGeometry relative="1" as="geometry">
            <Array as="points">
              <mxPoint x="360" y="300" />
              <mxPoint x="730" y="300" />
              <mxPoint x="730" y="420" />
              <mxPoint x="120" y="420" />
            </Array>
          </mxGeometry>
        </mxCell>
        <mxCell id="kbSjcRvdbvo7TDoH9uiN-39" value="Room_ID" style="rounded=0;whiteSpace=wrap;html=1;" parent="1" vertex="1">
          <mxGeometry x="320" y="260" width="80" height="30" as="geometry" />
        </mxCell>
        <mxCell id="kbSjcRvdbvo7TDoH9uiN-40" value="" style="rounded=0;whiteSpace=wrap;html=1;" parent="1" vertex="1">
          <mxGeometry x="80" y="370" width="480" height="30" as="geometry" />
        </mxCell>
        <mxCell id="kbSjcRvdbvo7TDoH9uiN-41" value="&lt;u&gt;Room_Id&lt;/u&gt;" style="rounded=0;whiteSpace=wrap;html=1;" parent="1" vertex="1">
          <mxGeometry x="80" y="370" width="80" height="30" as="geometry" />
        </mxCell>
        <mxCell id="kbSjcRvdbvo7TDoH9uiN-42" value="Room_Number" style="rounded=0;whiteSpace=wrap;html=1;" parent="1" vertex="1">
          <mxGeometry x="160" y="370" width="80" height="30" as="geometry" />
        </mxCell>
        <mxCell id="kbSjcRvdbvo7TDoH9uiN-43" value="Is_Available" style="rounded=0;whiteSpace=wrap;html=1;" parent="1" vertex="1">
          <mxGeometry x="240" y="370" width="80" height="30" as="geometry" />
        </mxCell>
        <mxCell id="kbSjcRvdbvo7TDoH9uiN-44" value="Length" style="rounded=0;whiteSpace=wrap;html=1;" parent="1" vertex="1">
          <mxGeometry x="320" y="370" width="80" height="30" as="geometry" />
        </mxCell>
        <mxCell id="kbSjcRvdbvo7TDoH9uiN-45" value="Width" style="rounded=0;whiteSpace=wrap;html=1;" parent="1" vertex="1">
          <mxGeometry x="400" y="370" width="80" height="30" as="geometry" />
        </mxCell>
        <mxCell id="kbSjcRvdbvo7TDoH9uiN-46" value="" style="rounded=0;whiteSpace=wrap;html=1;" parent="1" vertex="1">
          <mxGeometry x="81" y="470" width="409" height="30" as="geometry" />
        </mxCell>
        <mxCell id="kbSjcRvdbvo7TDoH9uiN-47" value="&lt;u&gt;Deptartment_Id&lt;/u&gt;" style="rounded=0;whiteSpace=wrap;html=1;" parent="1" vertex="1">
          <mxGeometry x="80" y="470" width="90" height="30" as="geometry" />
        </mxCell>
        <mxCell id="kbSjcRvdbvo7TDoH9uiN-48" value="Department_Name" style="rounded=0;whiteSpace=wrap;html=1;" parent="1" vertex="1">
          <mxGeometry x="170" y="470" width="120" height="30" as="geometry" />
        </mxCell>
        <mxCell id="kbSjcRvdbvo7TDoH9uiN-49" value="&#xa;&lt;span style=&quot;color: rgb(0, 0, 0); font-family: Helvetica; font-size: 12px; font-style: normal; font-variant-ligatures: normal; font-variant-caps: normal; font-weight: 400; letter-spacing: normal; orphans: 2; text-align: center; text-indent: 0px; text-transform: none; widows: 2; word-spacing: 0px; -webkit-text-stroke-width: 0px; white-space: normal; background-color: rgb(251, 251, 251); text-decoration-thickness: initial; text-decoration-style: initial; text-decoration-color: initial; display: inline !important; float: none;&quot;&gt;Department_Discription&lt;/span&gt;&#xa;&#xa;" style="rounded=0;whiteSpace=wrap;html=1;" parent="1" vertex="1">
          <mxGeometry x="290" y="470" width="121" height="30" as="geometry" />
        </mxCell>
        <mxCell id="Brqu6o4PabaYGnHVCudD-16" style="edgeStyle=orthogonalEdgeStyle;rounded=0;orthogonalLoop=1;jettySize=auto;html=1;exitX=0.5;exitY=1;exitDx=0;exitDy=0;entryX=0.5;entryY=1;entryDx=0;entryDy=0;" parent="1" source="kbSjcRvdbvo7TDoH9uiN-50" target="kbSjcRvdbvo7TDoH9uiN-61" edge="1">
          <mxGeometry relative="1" as="geometry">
            <Array as="points">
              <mxPoint x="451" y="510" />
              <mxPoint x="1130" y="510" />
              <mxPoint x="1130" y="760" />
              <mxPoint x="120" y="760" />
            </Array>
          </mxGeometry>
        </mxCell>
        <mxCell id="kbSjcRvdbvo7TDoH9uiN-50" value="Mgr_Id" style="rounded=0;whiteSpace=wrap;html=1;" parent="1" vertex="1">
          <mxGeometry x="411" y="470" width="80" height="30" as="geometry" />
        </mxCell>
        <mxCell id="kbSjcRvdbvo7TDoH9uiN-52" value="" style="rounded=0;whiteSpace=wrap;html=1;" parent="1" vertex="1">
          <mxGeometry x="80" y="590" width="640" height="30" as="geometry" />
        </mxCell>
        <mxCell id="kbSjcRvdbvo7TDoH9uiN-53" value="&lt;u&gt;Machine_Id&lt;/u&gt;" style="rounded=0;whiteSpace=wrap;html=1;" parent="1" vertex="1">
          <mxGeometry x="80" y="590" width="80" height="30" as="geometry" />
        </mxCell>
        <mxCell id="kbSjcRvdbvo7TDoH9uiN-54" value="Machine_Name" style="rounded=0;whiteSpace=wrap;html=1;" parent="1" vertex="1">
          <mxGeometry x="160" y="590" width="100" height="30" as="geometry" />
        </mxCell>
        <mxCell id="kbSjcRvdbvo7TDoH9uiN-55" value="Is_Working" style="rounded=0;whiteSpace=wrap;html=1;" parent="1" vertex="1">
          <mxGeometry x="260" y="590" width="80" height="30" as="geometry" />
        </mxCell>
        <mxCell id="kbSjcRvdbvo7TDoH9uiN-56" value="Price" style="rounded=0;whiteSpace=wrap;html=1;" parent="1" vertex="1">
          <mxGeometry x="320" y="590" width="80" height="30" as="geometry" />
        </mxCell>
        <mxCell id="kbSjcRvdbvo7TDoH9uiN-57" value="About" style="rounded=0;whiteSpace=wrap;html=1;" parent="1" vertex="1">
          <mxGeometry x="399" y="590" width="80" height="30" as="geometry" />
        </mxCell>
        <mxCell id="kbSjcRvdbvo7TDoH9uiN-58" value="Time_of_Purchase" style="rounded=0;whiteSpace=wrap;html=1;" parent="1" vertex="1">
          <mxGeometry x="480" y="590" width="100" height="30" as="geometry" />
        </mxCell>
        <mxCell id="kbSjcRvdbvo7TDoH9uiN-59" value="Employee" style="rounded=0;whiteSpace=wrap;html=1;" parent="1" vertex="1">
          <mxGeometry x="80" y="680" width="120" height="30" as="geometry" />
        </mxCell>
        <mxCell id="kbSjcRvdbvo7TDoH9uiN-60" value="" style="rounded=0;whiteSpace=wrap;html=1;" parent="1" vertex="1">
          <mxGeometry x="80" y="710" width="1030" height="30" as="geometry" />
        </mxCell>
        <mxCell id="kbSjcRvdbvo7TDoH9uiN-61" value="&lt;u&gt;Employee_Id&lt;/u&gt;" style="rounded=0;whiteSpace=wrap;html=1;" parent="1" vertex="1">
          <mxGeometry x="80" y="710" width="80" height="30" as="geometry" />
        </mxCell>
        <mxCell id="kbSjcRvdbvo7TDoH9uiN-62" value="Fname" style="rounded=0;whiteSpace=wrap;html=1;" parent="1" vertex="1">
          <mxGeometry x="160" y="710" width="80" height="30" as="geometry" />
        </mxCell>
        <mxCell id="kbSjcRvdbvo7TDoH9uiN-63" value="Mname" style="rounded=0;whiteSpace=wrap;html=1;" parent="1" vertex="1">
          <mxGeometry x="240" y="710" width="80" height="30" as="geometry" />
        </mxCell>
        <mxCell id="kbSjcRvdbvo7TDoH9uiN-64" value="Lname" style="rounded=0;whiteSpace=wrap;html=1;" parent="1" vertex="1">
          <mxGeometry x="320" y="710" width="80" height="30" as="geometry" />
        </mxCell>
        <mxCell id="kbSjcRvdbvo7TDoH9uiN-65" value="Perform_Rate" style="rounded=0;whiteSpace=wrap;html=1;" parent="1" vertex="1">
          <mxGeometry x="400" y="710" width="80" height="30" as="geometry" />
        </mxCell>
        <mxCell id="kbSjcRvdbvo7TDoH9uiN-66" value="PhoneNumber" style="rounded=0;whiteSpace=wrap;html=1;" parent="1" vertex="1">
          <mxGeometry x="960" y="710" width="80" height="30" as="geometry" />
        </mxCell>
        <mxCell id="kbSjcRvdbvo7TDoH9uiN-67" value="Address" style="rounded=0;whiteSpace=wrap;html=1;" parent="1" vertex="1">
          <mxGeometry x="880" y="710" width="80" height="30" as="geometry" />
        </mxCell>
        <mxCell id="kbSjcRvdbvo7TDoH9uiN-68" value="HireDate" style="rounded=0;whiteSpace=wrap;html=1;" parent="1" vertex="1">
          <mxGeometry x="800" y="710" width="80" height="30" as="geometry" />
        </mxCell>
        <mxCell id="kbSjcRvdbvo7TDoH9uiN-69" value="DOB" style="rounded=0;whiteSpace=wrap;html=1;" parent="1" vertex="1">
          <mxGeometry x="720" y="710" width="80" height="30" as="geometry" />
        </mxCell>
        <mxCell id="kbSjcRvdbvo7TDoH9uiN-70" value="WeeklyHours" style="rounded=0;whiteSpace=wrap;html=1;" parent="1" vertex="1">
          <mxGeometry x="640" y="710" width="80" height="30" as="geometry" />
        </mxCell>
        <mxCell id="kbSjcRvdbvo7TDoH9uiN-71" value="Gender" style="rounded=0;whiteSpace=wrap;html=1;" parent="1" vertex="1">
          <mxGeometry x="560" y="710" width="80" height="30" as="geometry" />
        </mxCell>
        <mxCell id="kbSjcRvdbvo7TDoH9uiN-72" value="Salary" style="rounded=0;whiteSpace=wrap;html=1;" parent="1" vertex="1">
          <mxGeometry x="480" y="710" width="80" height="30" as="geometry" />
        </mxCell>
        <mxCell id="Brqu6o4PabaYGnHVCudD-17" style="edgeStyle=orthogonalEdgeStyle;rounded=0;orthogonalLoop=1;jettySize=auto;html=1;exitX=0.5;exitY=1;exitDx=0;exitDy=0;entryX=0.5;entryY=1;entryDx=0;entryDy=0;" parent="1" source="kbSjcRvdbvo7TDoH9uiN-73" target="kbSjcRvdbvo7TDoH9uiN-61" edge="1">
          <mxGeometry relative="1" as="geometry">
            <Array as="points">
              <mxPoint x="1075" y="770" />
              <mxPoint x="120" y="770" />
            </Array>
          </mxGeometry>
        </mxCell>
        <mxCell id="kbSjcRvdbvo7TDoH9uiN-73" value="Mgr_Id" style="rounded=0;whiteSpace=wrap;html=1;" parent="1" vertex="1">
          <mxGeometry x="1040" y="710" width="70" height="30" as="geometry" />
        </mxCell>
        <mxCell id="kbSjcRvdbvo7TDoH9uiN-74" value="Doctor" style="rounded=0;whiteSpace=wrap;html=1;" parent="1" vertex="1">
          <mxGeometry x="80" y="790" width="120" height="30" as="geometry" />
        </mxCell>
        <mxCell id="kbSjcRvdbvo7TDoH9uiN-75" value="" style="rounded=0;whiteSpace=wrap;html=1;" parent="1" vertex="1">
          <mxGeometry x="80" y="820" width="640" height="30" as="geometry" />
        </mxCell>
        <mxCell id="tBT8CLfCMpw9sTmY56l--10" style="edgeStyle=orthogonalEdgeStyle;rounded=0;orthogonalLoop=1;jettySize=auto;html=1;exitX=0.5;exitY=1;exitDx=0;exitDy=0;entryX=0.5;entryY=1;entryDx=0;entryDy=0;" parent="1" source="kbSjcRvdbvo7TDoH9uiN-76" target="kbSjcRvdbvo7TDoH9uiN-61" edge="1">
          <mxGeometry relative="1" as="geometry">
            <Array as="points">
              <mxPoint x="120" y="880" />
              <mxPoint x="60" y="880" />
              <mxPoint x="60" y="780" />
              <mxPoint x="130" y="780" />
              <mxPoint x="130" y="740" />
            </Array>
          </mxGeometry>
        </mxCell>
        <mxCell id="kbSjcRvdbvo7TDoH9uiN-76" value="&lt;u&gt;Doctor_Id&lt;/u&gt;" style="rounded=0;whiteSpace=wrap;html=1;" parent="1" vertex="1">
          <mxGeometry x="80" y="820" width="80" height="30" as="geometry" />
        </mxCell>
        <mxCell id="Brqu6o4PabaYGnHVCudD-4" style="edgeStyle=orthogonalEdgeStyle;rounded=0;orthogonalLoop=1;jettySize=auto;html=1;exitX=0.5;exitY=1;exitDx=0;exitDy=0;entryX=0.25;entryY=1;entryDx=0;entryDy=0;" parent="1" source="kbSjcRvdbvo7TDoH9uiN-77" target="kbSjcRvdbvo7TDoH9uiN-41" edge="1">
          <mxGeometry relative="1" as="geometry">
            <Array as="points">
              <mxPoint x="200" y="870" />
              <mxPoint x="30" y="870" />
              <mxPoint x="30" y="410" />
              <mxPoint x="100" y="410" />
            </Array>
          </mxGeometry>
        </mxCell>
        <mxCell id="kbSjcRvdbvo7TDoH9uiN-77" value="AppointRoom" style="rounded=0;whiteSpace=wrap;html=1;" parent="1" vertex="1">
          <mxGeometry x="160" y="820" width="80" height="30" as="geometry" />
        </mxCell>
        <mxCell id="kbSjcRvdbvo7TDoH9uiN-78" value="Specialization" style="rounded=0;whiteSpace=wrap;html=1;" parent="1" vertex="1">
          <mxGeometry x="240" y="820" width="80" height="30" as="geometry" />
        </mxCell>
        <mxCell id="kbSjcRvdbvo7TDoH9uiN-79" value="Num_Of_Oper" style="rounded=0;whiteSpace=wrap;html=1;" parent="1" vertex="1">
          <mxGeometry x="320" y="820" width="80" height="30" as="geometry" />
        </mxCell>
        <mxCell id="kbSjcRvdbvo7TDoH9uiN-80" value="Email" style="rounded=0;whiteSpace=wrap;html=1;" parent="1" vertex="1">
          <mxGeometry x="400" y="820" width="80" height="30" as="geometry" />
        </mxCell>
        <mxCell id="kbSjcRvdbvo7TDoH9uiN-81" value="Nurse" style="rounded=0;whiteSpace=wrap;html=1;" parent="1" vertex="1">
          <mxGeometry x="79" y="920" width="120" height="30" as="geometry" />
        </mxCell>
        <mxCell id="kbSjcRvdbvo7TDoH9uiN-82" value="" style="rounded=0;whiteSpace=wrap;html=1;" parent="1" vertex="1">
          <mxGeometry x="79" y="950" width="401" height="30" as="geometry" />
        </mxCell>
        <mxCell id="tBT8CLfCMpw9sTmY56l--9" style="edgeStyle=orthogonalEdgeStyle;rounded=0;orthogonalLoop=1;jettySize=auto;html=1;exitX=0.5;exitY=1;exitDx=0;exitDy=0;entryX=0;entryY=1;entryDx=0;entryDy=0;" parent="1" edge="1">
          <mxGeometry relative="1" as="geometry">
            <mxPoint x="148.97" y="980" as="sourcePoint" />
            <mxPoint x="109.97" y="740" as="targetPoint" />
            <Array as="points">
              <mxPoint x="148.97" y="1000" />
              <mxPoint x="59.97" y="1000" />
              <mxPoint x="59.97" y="760" />
              <mxPoint x="109.97" y="760" />
            </Array>
          </mxGeometry>
        </mxCell>
        <mxCell id="kbSjcRvdbvo7TDoH9uiN-83" value="&lt;u&gt;Nurse_ID&lt;/u&gt;" style="rounded=0;whiteSpace=wrap;html=1;" parent="1" vertex="1">
          <mxGeometry x="79" y="950" width="80" height="30" as="geometry" />
        </mxCell>
        <mxCell id="kbSjcRvdbvo7TDoH9uiN-84" value="Exp_Level" style="rounded=0;whiteSpace=wrap;html=1;" parent="1" vertex="1">
          <mxGeometry x="159" y="950" width="80" height="30" as="geometry" />
        </mxCell>
        <mxCell id="kbSjcRvdbvo7TDoH9uiN-85" value="Shift_Schedule" style="rounded=0;whiteSpace=wrap;html=1;" parent="1" vertex="1">
          <mxGeometry x="239" y="950" width="80" height="30" as="geometry" />
        </mxCell>
        <mxCell id="kbSjcRvdbvo7TDoH9uiN-86" value="Dept_ID" style="rounded=0;whiteSpace=wrap;html=1;" parent="1" vertex="1">
          <mxGeometry x="319" y="950" width="80" height="30" as="geometry" />
        </mxCell>
        <mxCell id="Brqu6o4PabaYGnHVCudD-19" style="edgeStyle=orthogonalEdgeStyle;rounded=0;orthogonalLoop=1;jettySize=auto;html=1;exitX=0.5;exitY=1;exitDx=0;exitDy=0;entryX=0.25;entryY=1;entryDx=0;entryDy=0;" parent="1" source="kbSjcRvdbvo7TDoH9uiN-87" target="kbSjcRvdbvo7TDoH9uiN-61" edge="1">
          <mxGeometry relative="1" as="geometry">
            <Array as="points">
              <mxPoint x="439" y="1000" />
              <mxPoint x="40" y="1000" />
              <mxPoint x="40" y="740" />
            </Array>
          </mxGeometry>
        </mxCell>
        <mxCell id="kbSjcRvdbvo7TDoH9uiN-87" value="SuperVisor" style="rounded=0;whiteSpace=wrap;html=1;" parent="1" vertex="1">
          <mxGeometry x="399" y="950" width="80" height="30" as="geometry" />
        </mxCell>
        <mxCell id="kbSjcRvdbvo7TDoH9uiN-88" value="Worker" style="rounded=0;whiteSpace=wrap;html=1;" parent="1" vertex="1">
          <mxGeometry x="80" y="1020" width="120" height="30" as="geometry" />
        </mxCell>
        <mxCell id="kbSjcRvdbvo7TDoH9uiN-89" value="" style="rounded=0;whiteSpace=wrap;html=1;" parent="1" vertex="1">
          <mxGeometry x="80" y="1050" width="320" height="30" as="geometry" />
        </mxCell>
        <mxCell id="tBT8CLfCMpw9sTmY56l--11" style="edgeStyle=orthogonalEdgeStyle;rounded=0;orthogonalLoop=1;jettySize=auto;html=1;exitX=0.5;exitY=1;exitDx=0;exitDy=0;entryX=0;entryY=0.75;entryDx=0;entryDy=0;" parent="1" source="kbSjcRvdbvo7TDoH9uiN-90" target="kbSjcRvdbvo7TDoH9uiN-61" edge="1">
          <mxGeometry relative="1" as="geometry">
            <Array as="points">
              <mxPoint x="120" y="1100" />
              <mxPoint x="70" y="1100" />
              <mxPoint x="70" y="733" />
            </Array>
          </mxGeometry>
        </mxCell>
        <mxCell id="kbSjcRvdbvo7TDoH9uiN-90" value="&lt;u&gt;Worker_Id&lt;/u&gt;" style="rounded=0;whiteSpace=wrap;html=1;" parent="1" vertex="1">
          <mxGeometry x="80" y="1050" width="80" height="30" as="geometry" />
        </mxCell>
        <mxCell id="kbSjcRvdbvo7TDoH9uiN-91" value="Work_Role" style="rounded=0;whiteSpace=wrap;html=1;" parent="1" vertex="1">
          <mxGeometry x="160" y="1050" width="80" height="30" as="geometry" />
        </mxCell>
        <mxCell id="kbSjcRvdbvo7TDoH9uiN-93" value="Shift_Schedule" style="rounded=0;whiteSpace=wrap;html=1;" parent="1" vertex="1">
          <mxGeometry x="320" y="1050" width="80" height="30" as="geometry" />
        </mxCell>
        <mxCell id="kbSjcRvdbvo7TDoH9uiN-95" value="Dept_Id" style="rounded=0;whiteSpace=wrap;html=1;" parent="1" vertex="1">
          <mxGeometry x="639" y="820" width="80" height="30" as="geometry" />
        </mxCell>
        <mxCell id="kbSjcRvdbvo7TDoH9uiN-96" value="Exp_Level" style="rounded=0;whiteSpace=wrap;html=1;" parent="1" vertex="1">
          <mxGeometry x="559" y="820" width="80" height="30" as="geometry" />
        </mxCell>
        <mxCell id="kbSjcRvdbvo7TDoH9uiN-97" value="Medical_Licence" style="rounded=0;whiteSpace=wrap;html=1;" parent="1" vertex="1">
          <mxGeometry x="479" y="820" width="80" height="30" as="geometry" />
        </mxCell>
        <mxCell id="kbSjcRvdbvo7TDoH9uiN-98" value="" style="rounded=0;whiteSpace=wrap;html=1;" parent="1" vertex="1">
          <mxGeometry x="720" y="820" height="30" as="geometry" />
        </mxCell>
        <mxCell id="kbSjcRvdbvo7TDoH9uiN-100" value="Operation" style="rounded=0;whiteSpace=wrap;html=1;" parent="1" vertex="1">
          <mxGeometry x="81" y="1150" width="120" height="30" as="geometry" />
        </mxCell>
        <mxCell id="kbSjcRvdbvo7TDoH9uiN-101" value="" style="rounded=0;whiteSpace=wrap;html=1;" parent="1" vertex="1">
          <mxGeometry x="81" y="1180" width="879" height="30" as="geometry" />
        </mxCell>
        <mxCell id="kbSjcRvdbvo7TDoH9uiN-102" value="&lt;u&gt;Operation_Id&lt;/u&gt;" style="rounded=0;whiteSpace=wrap;html=1;" parent="1" vertex="1">
          <mxGeometry x="81" y="1180" width="80" height="30" as="geometry" />
        </mxCell>
        <mxCell id="kbSjcRvdbvo7TDoH9uiN-103" value="Operation_Date" style="rounded=0;whiteSpace=wrap;html=1;" parent="1" vertex="1">
          <mxGeometry x="161" y="1180" width="80" height="30" as="geometry" />
        </mxCell>
        <mxCell id="kbSjcRvdbvo7TDoH9uiN-104" value="Start_Time" style="rounded=0;whiteSpace=wrap;html=1;" parent="1" vertex="1">
          <mxGeometry x="241" y="1180" width="80" height="30" as="geometry" />
        </mxCell>
        <mxCell id="kbSjcRvdbvo7TDoH9uiN-105" value="End_Time" style="rounded=0;whiteSpace=wrap;html=1;" parent="1" vertex="1">
          <mxGeometry x="321" y="1180" width="80" height="30" as="geometry" />
        </mxCell>
        <mxCell id="kbSjcRvdbvo7TDoH9uiN-106" value="Success" style="rounded=0;whiteSpace=wrap;html=1;" parent="1" vertex="1">
          <mxGeometry x="401" y="1180" width="80" height="30" as="geometry" />
        </mxCell>
        <mxCell id="kbSjcRvdbvo7TDoH9uiN-107" value="Absences" style="rounded=0;whiteSpace=wrap;html=1;" parent="1" vertex="1">
          <mxGeometry x="81" y="1310" width="120" height="30" as="geometry" />
        </mxCell>
        <mxCell id="kbSjcRvdbvo7TDoH9uiN-108" value="" style="rounded=0;whiteSpace=wrap;html=1;" parent="1" vertex="1">
          <mxGeometry x="81" y="1340" width="480" height="30" as="geometry" />
        </mxCell>
        <mxCell id="kbSjcRvdbvo7TDoH9uiN-109" value="&lt;u&gt;Absence_Id&lt;/u&gt;" style="rounded=0;whiteSpace=wrap;html=1;" parent="1" vertex="1">
          <mxGeometry x="81" y="1340" width="80" height="30" as="geometry" />
        </mxCell>
        <mxCell id="kbSjcRvdbvo7TDoH9uiN-110" value="Abs_reason" style="rounded=0;whiteSpace=wrap;html=1;" parent="1" vertex="1">
          <mxGeometry x="161" y="1340" width="80" height="30" as="geometry" />
        </mxCell>
        <mxCell id="kbSjcRvdbvo7TDoH9uiN-111" value="Abs_Status" style="rounded=0;whiteSpace=wrap;html=1;" parent="1" vertex="1">
          <mxGeometry x="241" y="1340" width="80" height="30" as="geometry" />
        </mxCell>
        <mxCell id="tBT8CLfCMpw9sTmY56l--25" style="edgeStyle=orthogonalEdgeStyle;rounded=0;orthogonalLoop=1;jettySize=auto;html=1;exitX=0.5;exitY=1;exitDx=0;exitDy=0;entryX=0.75;entryY=1;entryDx=0;entryDy=0;" parent="1" source="kbSjcRvdbvo7TDoH9uiN-112" target="kbSjcRvdbvo7TDoH9uiN-61" edge="1">
          <mxGeometry relative="1" as="geometry">
            <Array as="points">
              <mxPoint x="441" y="1390" />
              <mxPoint x="-50" y="1390" />
              <mxPoint x="-50" y="770" />
              <mxPoint x="140" y="770" />
            </Array>
          </mxGeometry>
        </mxCell>
        <mxCell id="kbSjcRvdbvo7TDoH9uiN-112" value="Emp_Id" style="rounded=0;whiteSpace=wrap;html=1;" parent="1" vertex="1">
          <mxGeometry x="401" y="1340" width="80" height="30" as="geometry" />
        </mxCell>
        <mxCell id="kbSjcRvdbvo7TDoH9uiN-113" value="Operation_About" style="rounded=0;whiteSpace=wrap;html=1;" parent="1" vertex="1">
          <mxGeometry x="880" y="1180" width="80" height="30" as="geometry" />
        </mxCell>
        <mxCell id="kbSjcRvdbvo7TDoH9uiN-114" value="Dept_Id" style="rounded=0;whiteSpace=wrap;html=1;" parent="1" vertex="1">
          <mxGeometry x="800" y="1180" width="80" height="30" as="geometry" />
        </mxCell>
        <mxCell id="Brqu6o4PabaYGnHVCudD-5" style="edgeStyle=orthogonalEdgeStyle;rounded=0;orthogonalLoop=1;jettySize=auto;html=1;exitX=0.5;exitY=1;exitDx=0;exitDy=0;entryX=0.5;entryY=1;entryDx=0;entryDy=0;" parent="1" source="kbSjcRvdbvo7TDoH9uiN-115" target="kbSjcRvdbvo7TDoH9uiN-41" edge="1">
          <mxGeometry relative="1" as="geometry">
            <Array as="points">
              <mxPoint x="760" y="1230" />
              <mxPoint x="-30" y="1230" />
              <mxPoint x="-30" y="430" />
              <mxPoint x="120" y="430" />
            </Array>
          </mxGeometry>
        </mxCell>
        <mxCell id="kbSjcRvdbvo7TDoH9uiN-115" value="Room_Id" style="rounded=0;whiteSpace=wrap;html=1;" parent="1" vertex="1">
          <mxGeometry x="720" y="1180" width="80" height="30" as="geometry" />
        </mxCell>
        <mxCell id="kbSjcRvdbvo7TDoH9uiN-116" value="Patient_PNumber" style="rounded=0;whiteSpace=wrap;html=1;" parent="1" vertex="1">
          <mxGeometry x="640" y="1180" width="80" height="30" as="geometry" />
        </mxCell>
        <mxCell id="kbSjcRvdbvo7TDoH9uiN-117" value="Patinet_Name" style="rounded=0;whiteSpace=wrap;html=1;" parent="1" vertex="1">
          <mxGeometry x="560" y="1180" width="80" height="30" as="geometry" />
        </mxCell>
        <mxCell id="kbSjcRvdbvo7TDoH9uiN-118" value="Patient_Id" style="rounded=0;whiteSpace=wrap;html=1;" parent="1" vertex="1">
          <mxGeometry x="481" y="1180" width="80" height="30" as="geometry" />
        </mxCell>
        <mxCell id="kbSjcRvdbvo7TDoH9uiN-120" value="Abs_Date" style="rounded=0;whiteSpace=wrap;html=1;" parent="1" vertex="1">
          <mxGeometry x="320" y="1340" width="80" height="30" as="geometry" />
        </mxCell>
        <mxCell id="kbSjcRvdbvo7TDoH9uiN-135" value="Visits" style="rounded=0;whiteSpace=wrap;html=1;" parent="1" vertex="1">
          <mxGeometry x="81" y="1440" width="120" height="30" as="geometry" />
        </mxCell>
        <mxCell id="kbSjcRvdbvo7TDoH9uiN-136" value="" style="rounded=0;whiteSpace=wrap;html=1;" parent="1" vertex="1">
          <mxGeometry x="81" y="1470" width="319" height="30" as="geometry" />
        </mxCell>
        <mxCell id="kbSjcRvdbvo7TDoH9uiN-137" value="&lt;u&gt;Visit_Id&lt;/u&gt;" style="rounded=0;whiteSpace=wrap;html=1;" parent="1" vertex="1">
          <mxGeometry x="81" y="1470" width="80" height="30" as="geometry" />
        </mxCell>
        <mxCell id="kbSjcRvdbvo7TDoH9uiN-138" value="Visit_Date" style="rounded=0;whiteSpace=wrap;html=1;" parent="1" vertex="1">
          <mxGeometry x="161" y="1470" width="80" height="30" as="geometry" />
        </mxCell>
        <mxCell id="kbSjcRvdbvo7TDoH9uiN-139" value="VisitorNumbers" style="rounded=0;whiteSpace=wrap;html=1;" parent="1" vertex="1">
          <mxGeometry x="241" y="1470" width="80" height="30" as="geometry" />
        </mxCell>
        <mxCell id="Brqu6o4PabaYGnHVCudD-27" style="edgeStyle=orthogonalEdgeStyle;rounded=0;orthogonalLoop=1;jettySize=auto;html=1;exitX=0.5;exitY=1;exitDx=0;exitDy=0;entryX=0.5;entryY=1;entryDx=0;entryDy=0;" parent="1" source="kbSjcRvdbvo7TDoH9uiN-141" target="kbSjcRvdbvo7TDoH9uiN-3" edge="1">
          <mxGeometry relative="1" as="geometry">
            <Array as="points">
              <mxPoint x="360" y="1520" />
              <mxPoint x="-110" y="1520" />
              <mxPoint x="-110" y="220" />
              <mxPoint x="120" y="220" />
            </Array>
          </mxGeometry>
        </mxCell>
        <mxCell id="kbSjcRvdbvo7TDoH9uiN-141" value="Patient_Id" style="rounded=0;whiteSpace=wrap;html=1;" parent="1" vertex="1">
          <mxGeometry x="320" y="1470" width="80" height="30" as="geometry" />
        </mxCell>
        <mxCell id="kbSjcRvdbvo7TDoH9uiN-142" value="Bill" style="rounded=0;whiteSpace=wrap;html=1;" parent="1" vertex="1">
          <mxGeometry x="81" y="1600" width="120" height="30" as="geometry" />
        </mxCell>
        <mxCell id="kbSjcRvdbvo7TDoH9uiN-149" value="&lt;u&gt;Bill_Id&lt;/u&gt;" style="rounded=0;whiteSpace=wrap;html=1;" parent="1" vertex="1">
          <mxGeometry x="81" y="1630" width="80" height="30" as="geometry" />
        </mxCell>
        <mxCell id="kbSjcRvdbvo7TDoH9uiN-150" value="Bill_Date" style="rounded=0;whiteSpace=wrap;html=1;" parent="1" vertex="1">
          <mxGeometry x="161" y="1630" width="80" height="30" as="geometry" />
        </mxCell>
        <mxCell id="kbSjcRvdbvo7TDoH9uiN-151" value="Pay_Method" style="rounded=0;whiteSpace=wrap;html=1;" parent="1" vertex="1">
          <mxGeometry x="241" y="1630" width="80" height="30" as="geometry" />
        </mxCell>
        <mxCell id="kbSjcRvdbvo7TDoH9uiN-152" value="Pay_Status" style="rounded=0;whiteSpace=wrap;html=1;" parent="1" vertex="1">
          <mxGeometry x="321" y="1630" width="80" height="30" as="geometry" />
        </mxCell>
        <mxCell id="kbSjcRvdbvo7TDoH9uiN-153" value="Bill_Value" style="rounded=0;whiteSpace=wrap;html=1;" parent="1" vertex="1">
          <mxGeometry x="401" y="1630" width="80" height="30" as="geometry" />
        </mxCell>
        <mxCell id="tBT8CLfCMpw9sTmY56l--24" style="edgeStyle=orthogonalEdgeStyle;rounded=0;orthogonalLoop=1;jettySize=auto;html=1;exitX=0.5;exitY=1;exitDx=0;exitDy=0;entryX=0.25;entryY=1;entryDx=0;entryDy=0;" parent="1" source="kbSjcRvdbvo7TDoH9uiN-158" target="kbSjcRvdbvo7TDoH9uiN-3" edge="1">
          <mxGeometry relative="1" as="geometry">
            <Array as="points">
              <mxPoint x="600" y="1680" />
              <mxPoint x="20" y="1680" />
              <mxPoint x="20" y="180" />
            </Array>
          </mxGeometry>
        </mxCell>
        <mxCell id="kbSjcRvdbvo7TDoH9uiN-158" value="Patinet_Id" style="rounded=0;whiteSpace=wrap;html=1;" parent="1" vertex="1">
          <mxGeometry x="560" y="1630" width="80" height="30" as="geometry" />
        </mxCell>
        <mxCell id="kbSjcRvdbvo7TDoH9uiN-159" value="Bill_Description" style="rounded=0;whiteSpace=wrap;html=1;" parent="1" vertex="1">
          <mxGeometry x="481" y="1630" width="80" height="30" as="geometry" />
        </mxCell>
        <mxCell id="kbSjcRvdbvo7TDoH9uiN-160" value="Appointment" style="rounded=0;whiteSpace=wrap;html=1;" parent="1" vertex="1">
          <mxGeometry x="82" y="1770" width="120" height="30" as="geometry" />
        </mxCell>
        <mxCell id="kbSjcRvdbvo7TDoH9uiN-161" value="&lt;u&gt;Appointment_Id&lt;/u&gt;" style="rounded=0;whiteSpace=wrap;html=1;" parent="1" vertex="1">
          <mxGeometry x="82" y="1800" width="169" height="30" as="geometry" />
        </mxCell>
        <mxCell id="kbSjcRvdbvo7TDoH9uiN-166" value="Patient_Name" style="rounded=0;whiteSpace=wrap;html=1;" parent="1" vertex="1">
          <mxGeometry x="331" y="1800" width="80" height="30" as="geometry" />
        </mxCell>
        <mxCell id="tBT8CLfCMpw9sTmY56l--28" style="edgeStyle=orthogonalEdgeStyle;rounded=0;orthogonalLoop=1;jettySize=auto;html=1;exitX=0.5;exitY=1;exitDx=0;exitDy=0;" parent="1" source="kbSjcRvdbvo7TDoH9uiN-167" target="kbSjcRvdbvo7TDoH9uiN-47" edge="1">
          <mxGeometry relative="1" as="geometry">
            <Array as="points">
              <mxPoint x="842" y="1860" />
              <mxPoint x="-140" y="1860" />
              <mxPoint x="-140" y="520" />
              <mxPoint x="100" y="520" />
            </Array>
          </mxGeometry>
        </mxCell>
        <mxCell id="kbSjcRvdbvo7TDoH9uiN-167" value="Dept_Id" style="rounded=0;whiteSpace=wrap;html=1;" parent="1" vertex="1">
          <mxGeometry x="802" y="1800" width="80" height="30" as="geometry" />
        </mxCell>
        <mxCell id="tBT8CLfCMpw9sTmY56l--27" style="edgeStyle=orthogonalEdgeStyle;rounded=0;orthogonalLoop=1;jettySize=auto;html=1;exitX=0.5;exitY=1;exitDx=0;exitDy=0;entryX=0.25;entryY=1;entryDx=0;entryDy=0;" parent="1" source="kbSjcRvdbvo7TDoH9uiN-168" target="kbSjcRvdbvo7TDoH9uiN-41" edge="1">
          <mxGeometry relative="1" as="geometry">
            <Array as="points">
              <mxPoint x="762" y="1870" />
              <mxPoint x="-90" y="1870" />
              <mxPoint x="-90" y="420" />
              <mxPoint x="100" y="420" />
            </Array>
          </mxGeometry>
        </mxCell>
        <mxCell id="kbSjcRvdbvo7TDoH9uiN-168" value="Room_Id" style="rounded=0;whiteSpace=wrap;html=1;" parent="1" vertex="1">
          <mxGeometry x="722" y="1800" width="80" height="30" as="geometry" />
        </mxCell>
        <mxCell id="kbSjcRvdbvo7TDoH9uiN-169" value="Doctor_PNumber" style="rounded=0;whiteSpace=wrap;html=1;" parent="1" vertex="1">
          <mxGeometry x="642" y="1800" width="80" height="30" as="geometry" />
        </mxCell>
        <mxCell id="kbSjcRvdbvo7TDoH9uiN-170" value="Doctor_Id" style="rounded=0;whiteSpace=wrap;html=1;" parent="1" vertex="1">
          <mxGeometry x="482" y="1800" width="80" height="30" as="geometry" />
        </mxCell>
        <mxCell id="tBT8CLfCMpw9sTmY56l--30" style="edgeStyle=orthogonalEdgeStyle;rounded=0;orthogonalLoop=1;jettySize=auto;html=1;exitX=0.5;exitY=1;exitDx=0;exitDy=0;entryX=0.75;entryY=1;entryDx=0;entryDy=0;" parent="1" source="kbSjcRvdbvo7TDoH9uiN-171" target="kbSjcRvdbvo7TDoH9uiN-3" edge="1">
          <mxGeometry relative="1" as="geometry">
            <Array as="points">
              <mxPoint x="290" y="1910" />
              <mxPoint x="-160" y="1910" />
              <mxPoint x="-160" y="210" />
              <mxPoint x="140" y="210" />
            </Array>
          </mxGeometry>
        </mxCell>
        <mxCell id="kbSjcRvdbvo7TDoH9uiN-171" value="Patient_Id" style="rounded=0;whiteSpace=wrap;html=1;" parent="1" vertex="1">
          <mxGeometry x="251" y="1800" width="80" height="30" as="geometry" />
        </mxCell>
        <mxCell id="tBT8CLfCMpw9sTmY56l--16" style="edgeStyle=orthogonalEdgeStyle;rounded=0;orthogonalLoop=1;jettySize=auto;html=1;exitX=0.5;exitY=1;exitDx=0;exitDy=0;entryX=0.5;entryY=1;entryDx=0;entryDy=0;" parent="1" source="tBT8CLfCMpw9sTmY56l--15" target="kbSjcRvdbvo7TDoH9uiN-47" edge="1">
          <mxGeometry relative="1" as="geometry">
            <Array as="points">
              <mxPoint x="521" y="430" />
              <mxPoint x="590" y="430" />
              <mxPoint x="590" y="520" />
              <mxPoint x="120" y="520" />
            </Array>
          </mxGeometry>
        </mxCell>
        <mxCell id="tBT8CLfCMpw9sTmY56l--15" value="Dept_ID" style="rounded=0;whiteSpace=wrap;html=1;" parent="1" vertex="1">
          <mxGeometry x="481" y="370" width="80" height="30" as="geometry" />
        </mxCell>
        <mxCell id="tBT8CLfCMpw9sTmY56l--18" style="edgeStyle=orthogonalEdgeStyle;rounded=0;orthogonalLoop=1;jettySize=auto;html=1;exitX=0.5;exitY=0;exitDx=0;exitDy=0;entryX=0.75;entryY=1;entryDx=0;entryDy=0;" parent="1" source="tBT8CLfCMpw9sTmY56l--17" target="kbSjcRvdbvo7TDoH9uiN-47" edge="1">
          <mxGeometry relative="1" as="geometry" />
        </mxCell>
        <mxCell id="tBT8CLfCMpw9sTmY56l--17" value="Dept_Id" style="rounded=0;whiteSpace=wrap;html=1;" parent="1" vertex="1">
          <mxGeometry x="580" y="590" width="80" height="30" as="geometry" />
        </mxCell>
        <mxCell id="tBT8CLfCMpw9sTmY56l--21" style="edgeStyle=orthogonalEdgeStyle;rounded=0;orthogonalLoop=1;jettySize=auto;html=1;exitX=0.5;exitY=1;exitDx=0;exitDy=0;entryX=0.62;entryY=1.152;entryDx=0;entryDy=0;entryPerimeter=0;" parent="1" source="kbSjcRvdbvo7TDoH9uiN-86" target="kbSjcRvdbvo7TDoH9uiN-47" edge="1">
          <mxGeometry relative="1" as="geometry">
            <Array as="points">
              <mxPoint x="359" y="990" />
              <mxPoint x="50" y="990" />
              <mxPoint x="50" y="505" />
            </Array>
          </mxGeometry>
        </mxCell>
        <mxCell id="Brqu6o4PabaYGnHVCudD-20" style="edgeStyle=orthogonalEdgeStyle;rounded=0;orthogonalLoop=1;jettySize=auto;html=1;exitX=0.5;exitY=1;exitDx=0;exitDy=0;entryX=0;entryY=0.5;entryDx=0;entryDy=0;" parent="1" source="tBT8CLfCMpw9sTmY56l--22" target="kbSjcRvdbvo7TDoH9uiN-47" edge="1">
          <mxGeometry relative="1" as="geometry">
            <Array as="points">
              <mxPoint x="280" y="1110" />
              <mxPoint x="60" y="1110" />
              <mxPoint x="60" y="485" />
            </Array>
          </mxGeometry>
        </mxCell>
        <mxCell id="tBT8CLfCMpw9sTmY56l--22" value="Dept_Id" style="rounded=0;whiteSpace=wrap;html=1;" parent="1" vertex="1">
          <mxGeometry x="240" y="1050" width="80" height="30" as="geometry" />
        </mxCell>
        <mxCell id="wqu8I8YbPjAnAqX9bSx0-2" style="edgeStyle=orthogonalEdgeStyle;rounded=0;orthogonalLoop=1;jettySize=auto;html=1;exitX=0.5;exitY=1;exitDx=0;exitDy=0;entryX=0.913;entryY=0.933;entryDx=0;entryDy=0;entryPerimeter=0;" parent="1" source="kbSjcRvdbvo7TDoH9uiN-95" target="kbSjcRvdbvo7TDoH9uiN-47" edge="1">
          <mxGeometry relative="1" as="geometry">
            <Array as="points">
              <mxPoint x="679" y="870" />
              <mxPoint x="1150" y="870" />
              <mxPoint x="1150" y="530" />
              <mxPoint x="153" y="530" />
              <mxPoint x="153" y="498" />
            </Array>
          </mxGeometry>
        </mxCell>
        <mxCell id="wqu8I8YbPjAnAqX9bSx0-3" value="Room_Id" style="rounded=0;whiteSpace=wrap;html=1;" parent="1" vertex="1">
          <mxGeometry x="660" y="590" width="80" height="30" as="geometry" />
        </mxCell>
        <mxCell id="wqu8I8YbPjAnAqX9bSx0-4" style="edgeStyle=orthogonalEdgeStyle;rounded=0;orthogonalLoop=1;jettySize=auto;html=1;exitX=0.5;exitY=1;exitDx=0;exitDy=0;entryX=0.657;entryY=1.031;entryDx=0;entryDy=0;entryPerimeter=0;" parent="1" source="wqu8I8YbPjAnAqX9bSx0-3" target="kbSjcRvdbvo7TDoH9uiN-41" edge="1">
          <mxGeometry relative="1" as="geometry">
            <Array as="points">
              <mxPoint x="679" y="640" />
              <mxPoint x="750" y="640" />
              <mxPoint x="750" y="430" />
              <mxPoint x="133" y="430" />
            </Array>
          </mxGeometry>
        </mxCell>
        <mxCell id="wqu8I8YbPjAnAqX9bSx0-5" value="Operation_Id" style="rounded=0;whiteSpace=wrap;html=1;" parent="1" vertex="1">
          <mxGeometry x="559" y="370" width="80" height="30" as="geometry" />
        </mxCell>
        <mxCell id="Brqu6o4PabaYGnHVCudD-6" value="Appontment_Date" style="rounded=0;whiteSpace=wrap;html=1;" parent="1" vertex="1">
          <mxGeometry x="880" y="1800" width="120" height="30" as="geometry" />
        </mxCell>
        <mxCell id="Brqu6o4PabaYGnHVCudD-7" value="&lt;br&gt;&lt;span style=&quot;color: rgb(0, 0, 0); font-family: Helvetica; font-size: 12px; font-style: normal; font-variant-ligatures: normal; font-variant-caps: normal; font-weight: 400; letter-spacing: normal; orphans: 2; text-align: center; text-indent: 0px; text-transform: none; widows: 2; word-spacing: 0px; -webkit-text-stroke-width: 0px; white-space: normal; background-color: rgb(251, 251, 251); text-decoration-thickness: initial; text-decoration-style: initial; text-decoration-color: initial; display: inline !important; float: none;&quot;&gt;Appontment_Time&lt;/span&gt;&lt;div&gt;&lt;br/&gt;&lt;/div&gt;" style="rounded=0;whiteSpace=wrap;html=1;" parent="1" vertex="1">
          <mxGeometry x="1000" y="1800" width="100" height="30" as="geometry" />
        </mxCell>
        <mxCell id="Brqu6o4PabaYGnHVCudD-8" value="Doctor_Name" style="rounded=0;whiteSpace=wrap;html=1;" parent="1" vertex="1">
          <mxGeometry x="562" y="1800" width="80" height="30" as="geometry" />
        </mxCell>
        <mxCell id="Brqu6o4PabaYGnHVCudD-11" value="Patient_PNumber" style="rounded=0;whiteSpace=wrap;html=1;" parent="1" vertex="1">
          <mxGeometry x="411" y="1800" width="79" height="30" as="geometry" />
        </mxCell>
        <mxCell id="Brqu6o4PabaYGnHVCudD-14" value="Notes" style="rounded=0;whiteSpace=wrap;html=1;" parent="1" vertex="1">
          <mxGeometry x="1100" y="1800" width="80" height="30" as="geometry" />
        </mxCell>
        <mxCell id="Brqu6o4PabaYGnHVCudD-22" style="edgeStyle=orthogonalEdgeStyle;rounded=0;orthogonalLoop=1;jettySize=auto;html=1;exitX=0.5;exitY=1;exitDx=0;exitDy=0;entryX=0.407;entryY=0.914;entryDx=0;entryDy=0;entryPerimeter=0;" parent="1" source="kbSjcRvdbvo7TDoH9uiN-118" target="kbSjcRvdbvo7TDoH9uiN-3" edge="1">
          <mxGeometry relative="1" as="geometry">
            <Array as="points">
              <mxPoint x="521" y="1250" />
              <mxPoint x="-40" y="1250" />
              <mxPoint x="-40" y="200" />
              <mxPoint x="113" y="200" />
            </Array>
          </mxGeometry>
        </mxCell>
        <mxCell id="Brqu6o4PabaYGnHVCudD-23" style="edgeStyle=orthogonalEdgeStyle;rounded=0;orthogonalLoop=1;jettySize=auto;html=1;exitX=0.5;exitY=1;exitDx=0;exitDy=0;entryX=0.401;entryY=0.953;entryDx=0;entryDy=0;entryPerimeter=0;" parent="1" source="kbSjcRvdbvo7TDoH9uiN-114" target="kbSjcRvdbvo7TDoH9uiN-47" edge="1">
          <mxGeometry relative="1" as="geometry">
            <Array as="points">
              <mxPoint x="840" y="1240" />
              <mxPoint x="-10" y="1240" />
              <mxPoint x="-10" y="499" />
            </Array>
          </mxGeometry>
        </mxCell>
        <mxCell id="Brqu6o4PabaYGnHVCudD-24" style="edgeStyle=orthogonalEdgeStyle;rounded=0;orthogonalLoop=1;jettySize=auto;html=1;exitX=0.5;exitY=1;exitDx=0;exitDy=0;entryX=0.29;entryY=0.718;entryDx=0;entryDy=0;entryPerimeter=0;" parent="1" source="kbSjcRvdbvo7TDoH9uiN-170" target="kbSjcRvdbvo7TDoH9uiN-61" edge="1">
          <mxGeometry relative="1" as="geometry">
            <Array as="points">
              <mxPoint x="522" y="1850" />
              <mxPoint y="1850" />
              <mxPoint y="750" />
              <mxPoint x="103" y="750" />
            </Array>
          </mxGeometry>
        </mxCell>
        <mxCell id="Brqu6o4PabaYGnHVCudD-26" style="edgeStyle=orthogonalEdgeStyle;rounded=0;orthogonalLoop=1;jettySize=auto;html=1;exitX=0.5;exitY=1;exitDx=0;exitDy=0;entryX=0.5;entryY=1;entryDx=0;entryDy=0;" parent="1" source="Brqu6o4PabaYGnHVCudD-25" target="kbSjcRvdbvo7TDoH9uiN-61" edge="1">
          <mxGeometry relative="1" as="geometry">
            <Array as="points">
              <mxPoint x="519" y="1400" />
              <mxPoint x="-70" y="1400" />
              <mxPoint x="-70" y="740" />
            </Array>
          </mxGeometry>
        </mxCell>
        <mxCell id="Brqu6o4PabaYGnHVCudD-25" value="Approved_By" style="rounded=0;whiteSpace=wrap;html=1;" parent="1" vertex="1">
          <mxGeometry x="479" y="1340" width="80" height="30" as="geometry" />
        </mxCell>
        <mxCell id="Brqu6o4PabaYGnHVCudD-28" value="OperationDoctors" style="rounded=0;whiteSpace=wrap;html=1;" parent="1" vertex="1">
          <mxGeometry x="82" y="1940" width="128" height="30" as="geometry" />
        </mxCell>
        <mxCell id="Brqu6o4PabaYGnHVCudD-29" value="" style="rounded=0;whiteSpace=wrap;html=1;" parent="1" vertex="1">
          <mxGeometry x="82" y="1970" width="488" height="30" as="geometry" />
        </mxCell>
        <mxCell id="Brqu6o4PabaYGnHVCudD-31" value="Doctor_PNumber" style="rounded=0;whiteSpace=wrap;html=1;" parent="1" vertex="1">
          <mxGeometry x="450" y="1970" width="120" height="30" as="geometry" />
        </mxCell>
        <mxCell id="Brqu6o4PabaYGnHVCudD-32" value="Doctor_Name" style="rounded=0;whiteSpace=wrap;html=1;" parent="1" vertex="1">
          <mxGeometry x="330" y="1970" width="120" height="30" as="geometry" />
        </mxCell>
        <mxCell id="Brqu6o4PabaYGnHVCudD-35" style="edgeStyle=orthogonalEdgeStyle;rounded=0;orthogonalLoop=1;jettySize=auto;html=1;exitX=0.5;exitY=1;exitDx=0;exitDy=0;" parent="1" source="Brqu6o4PabaYGnHVCudD-33" target="kbSjcRvdbvo7TDoH9uiN-61" edge="1">
          <mxGeometry relative="1" as="geometry">
            <Array as="points">
              <mxPoint x="270" y="2040" />
              <mxPoint x="-200" y="2040" />
              <mxPoint x="-200" y="725" />
            </Array>
          </mxGeometry>
        </mxCell>
        <mxCell id="Brqu6o4PabaYGnHVCudD-33" value="&lt;u&gt;Doctor_Id&lt;/u&gt;" style="rounded=0;whiteSpace=wrap;html=1;" parent="1" vertex="1">
          <mxGeometry x="210" y="1970" width="120" height="30" as="geometry" />
        </mxCell>
        <mxCell id="Brqu6o4PabaYGnHVCudD-37" style="edgeStyle=orthogonalEdgeStyle;rounded=0;orthogonalLoop=1;jettySize=auto;html=1;exitX=0.5;exitY=1;exitDx=0;exitDy=0;entryX=0.5;entryY=1;entryDx=0;entryDy=0;" parent="1" source="Brqu6o4PabaYGnHVCudD-34" target="kbSjcRvdbvo7TDoH9uiN-102" edge="1">
          <mxGeometry relative="1" as="geometry">
            <Array as="points">
              <mxPoint x="146" y="2020" />
              <mxPoint x="40" y="2020" />
              <mxPoint x="40" y="1220" />
              <mxPoint x="121" y="1220" />
            </Array>
          </mxGeometry>
        </mxCell>
        <mxCell id="Brqu6o4PabaYGnHVCudD-34" value="&lt;u&gt;Operation_Id&lt;/u&gt;" style="rounded=0;whiteSpace=wrap;html=1;" parent="1" vertex="1">
          <mxGeometry x="82" y="1970" width="128" height="30" as="geometry" />
        </mxCell>
      </root>
    </mxGraphModel>
  </diagram>
</mxfile>
